<svg width="258" height="102" viewBox="0 0 258 102" fill="none" xmlns="http://www.w3.org/2000/svg">
<path d="M214.079 101.88C204.25 101.88 195.261 100.134 187.113 96.642C179.095 93.15 172.563 88.235 167.519 81.898L170.122 78.44L173.622 75.94L176.122 74.44L178.456 73.49L180.622 72.94L184.122 72.586C186.292 72.586 190.088 74.849 195.261 77.824C200.435 80.799 206.578 82.286 213.691 82.286C218.735 82.286 222.745 81.575 225.72 80.152C228.823 78.6 230.376 76.207 230.376 72.974C230.376 70.905 229.664 69.159 228.241 67.736C226.819 66.184 223.974 64.955 219.706 64.05L202.634 60.558C191.381 58.23 183.363 54.738 178.577 50.082C173.921 45.2967 171.594 39.1534 171.594 31.652C171.594 26.3494 173.145 21.37 176.249 16.714C179.483 12.058 184.268 8.3073 190.605 5.462C196.943 2.4873 204.832 1 214.274 1C223.974 1 232.38 2.552 239.493 5.656C246.736 8.6307 246.622 13.594 246.622 20.594L245.622 25.056L244.122 28.4402L242.622 31.652L241.622 32.9402C238.777 28.4136 234.061 26.608 229.405 24.28C224.879 21.8227 220.094 20.594 215.05 20.594C211.428 20.594 208.324 20.982 205.738 21.758C203.151 22.534 201.211 23.6333 199.917 25.056C198.624 26.3493 197.977 28.0307 197.977 30.1C197.977 32.1693 198.883 33.98 200.693 35.532C202.504 36.9547 205.802 38.1833 210.587 39.218L230.376 43.292C239.946 45.232 246.801 48.53 250.939 53.186C255.078 57.7127 257.147 63.209 257.147 69.676C257.147 75.884 255.466 81.445 252.103 86.36C248.87 91.145 244.02 94.961 237.553 97.806C231.216 100.522 223.391 101.88 214.079 101.88Z" fill="url(#paint0_linear_19_2)"/>
<path d="M1 98.9402L2 10.536L0 0.940002L24.862 1.94L25.832 19.4C29.0654 12.9333 33.4627 8.0833 39.024 4.85C44.7147 1.6167 50.9874 0 57.842 0C64.826 0 71.0987 1.6167 76.66 4.85C82.3507 8.0833 86.6187 12.8686 89.464 19.206C91.5334 14.938 94.314 11.3813 97.806 8.536C101.298 5.6907 105.178 3.5567 109.446 2.134C113.714 0.711303 118.047 0 122.444 0C128.781 0 134.537 1.2933 139.71 3.88C145.013 6.4667 149.216 10.3467 152.32 15.52C155.424 20.6933 156.976 27.2893 156.976 35.308V98.9402H130.398V40.546C130.398 33.4326 128.846 28.3887 125.742 25.414C122.638 22.4393 118.629 20.952 113.714 20.952C109.834 20.952 106.213 21.922 102.85 23.862C99.617 25.802 97.03 28.712 95.09 32.592C93.2794 36.3427 92.374 41.0633 92.374 46.754V98.9402H65.796V40.546C65.796 33.4326 64.1794 28.3887 60.946 25.414C57.842 22.4393 53.8327 20.952 48.918 20.952C45.5554 20.952 42.1927 21.8573 38.83 23.668C35.5967 25.4786 32.8807 28.324 30.682 32.204C28.6127 36.084 27.578 41.1926 27.578 47.53V98.9402H1Z" fill="#151515"/>
<defs>
<linearGradient id="paint0_linear_19_2" x1="159.532" y1="18" x2="260.532" y2="67.5" gradientUnits="userSpaceOnUse">
<stop stop-color="#0074FD"/>
<stop offset="0.485" stop-color="#0C99AF"/>
<stop offset="1" stop-color="#19C15D"/>
</linearGradient>
</defs>
</svg>
