<svg width="1070" height="142" viewBox="0 0 1070 142" fill="none" xmlns="http://www.w3.org/2000/svg">
<g clip-path="url(#clip0_17_20)">
<path d="M746.037 141.426C740.087 141.426 734.657 140.197 729.737 137.74C724.957 135.153 720.947 131.661 717.707 127.264C714.608 122.737 712.474 117.693 711.31 112.132L711.759 114.066L712.297 115.986L712.854 117.683L713.486 119.365L714.026 108.64L712.474 139.486H689V10.4931L689.637 5.48621L692.137 2.48621L696.137 0.486206L702.289 0H715.577V69.84V59.2711L714.827 60.8595L714.137 62.4862L713.561 64.1319L713.056 65.766C715.125 58.5233 719.067 52.5093 724.887 47.724C730.707 42.9387 738.017 40.546 746.807 40.546C754.447 40.546 761.357 42.5507 767.567 46.56C773.777 50.5693 778.627 56.3246 782.117 63.826C785.737 71.3273 787.547 80.4453 787.547 91.18C787.547 101.656 785.737 110.644 782.117 118.146C778.627 125.647 773.717 131.402 767.377 135.412C761.167 139.421 754.057 141.426 746.037 141.426ZM738.077 121.056C745.197 121.056 750.757 118.534 754.767 113.49C758.907 108.316 760.977 100.815 760.977 90.986C760.977 81.1567 758.967 73.72 754.957 68.676C750.947 63.5027 745.387 60.916 738.277 60.916C733.617 60.916 729.607 62.1446 726.247 64.602C722.887 67.0593 720.237 70.5513 718.297 75.078C716.487 79.6046 715.577 84.972 715.577 91.18C715.577 97.5173 716.487 102.949 718.297 107.476C720.237 111.873 722.887 115.236 726.247 117.564C729.737 119.892 733.687 121.056 738.077 121.056Z" fill="white"/>
<path d="M837.207 42.486V139.486H810.627V54.611L812.137 49.9862L815.637 46.56L819.407 43.9862L823.917 42.486H837.207Z" fill="white"/>
<path d="M909.617 40.546C919.437 40.546 928.047 42.5507 935.417 46.56C942.917 50.5693 948.737 56.3246 952.877 63.826C957.147 71.3273 959.277 80.3807 959.277 90.986C959.277 101.462 957.147 110.515 952.877 118.146C948.737 125.647 942.917 131.402 935.417 135.412C928.047 139.421 919.437 141.426 909.617 141.426C899.917 141.426 891.307 139.421 883.807 135.412C876.307 131.402 870.427 125.647 866.157 118.146C862.017 110.515 859.947 101.462 859.947 90.986C859.947 80.3807 862.017 71.3273 866.157 63.826C870.427 56.3246 876.307 50.5693 883.807 46.56C891.307 42.5507 899.917 40.546 909.617 40.546ZM909.617 60.334C904.697 60.334 900.497 61.498 897.007 63.826C893.637 66.0246 891.057 69.3873 889.247 73.914C887.427 78.4407 886.527 84.1313 886.527 90.986C886.527 97.8407 887.427 103.531 889.247 108.058C891.057 112.584 893.637 116.012 897.007 118.34C900.497 120.538 904.697 121.638 909.617 121.638C914.397 121.638 918.467 120.538 921.837 118.34C925.327 116.012 927.977 112.584 929.787 108.058C931.597 103.531 932.507 97.8407 932.507 90.986C932.507 84.1313 931.597 78.4407 929.787 73.914C927.977 69.3873 925.327 66.0246 921.837 63.826C918.467 61.498 914.397 60.334 909.617 60.334Z" fill="white"/>
<path d="M996.137 44.4862L1001.33 47.7967L1018.53 76.3416L1034.83 90.2975L1069.71 139.486H1046.58L1040.64 137.486L1035.54 134.054L1017.36 104.314L1034.83 90.2975L1018.53 76.3416L1001.33 90.1124L967.087 42.486H990.367L996.137 44.4862ZM1069.13 42.486L1034.83 90.2975L1017.36 104.314L998.947 133.811L994.637 137.486L987.887 139.486H965.337L1001.33 90.1124L1017.36 104.314L1034.83 90.2975L1018.53 76.3416L1035.81 47.8452L1040.14 44.4862L1046.58 42.486H1069.13Z" fill="white"/>
</g>
<g clip-path="url(#clip1_17_20)">
<path d="M1 138.94L2 50.536L0 40.94L24.862 41.94L25.832 59.4C29.0654 52.9333 33.4627 48.0833 39.024 44.85C44.7147 41.6167 50.9874 40 57.842 40C64.826 40 71.0987 41.6167 76.66 44.85C82.3507 48.0833 86.6187 52.8686 89.464 59.206C91.5334 54.938 94.314 51.3813 97.806 48.536C101.298 45.6907 105.178 43.5567 109.446 42.134C113.714 40.7113 118.047 40 122.444 40C128.781 40 134.537 41.2933 139.71 43.88C145.013 46.4667 149.216 50.3467 152.32 55.52C155.424 60.6933 156.976 67.2893 156.976 75.308V138.94H130.398V80.546C130.398 73.4326 128.846 68.3887 125.742 65.414C122.638 62.4393 118.629 60.952 113.714 60.952C109.834 60.952 106.213 61.922 102.85 63.862C99.617 65.802 97.03 68.712 95.09 72.592C93.2794 76.3427 92.374 81.0633 92.374 86.754V138.94H65.796V80.546C65.796 73.4326 64.1794 68.3887 60.946 65.414C57.842 62.4393 53.8327 60.952 48.918 60.952C45.5554 60.952 42.1927 61.8573 38.83 63.668C35.5967 65.4786 32.8807 68.324 30.682 72.204C28.6127 76.084 27.578 81.1926 27.578 87.53V138.94H1Z" fill="white"/>
<path d="M228.623 40C238.452 40 247.053 42.0047 254.425 46.014C261.926 50.0233 267.746 55.7786 271.885 63.28C276.153 70.7813 278.287 79.8347 278.287 90.44C278.287 100.916 276.153 109.969 271.885 117.6C267.746 125.101 261.926 130.856 254.425 134.866C247.053 138.875 238.452 140.88 228.623 140.88C218.923 140.88 210.322 138.875 202.821 134.866C195.319 130.856 189.435 125.101 185.167 117.6C181.028 109.969 178.959 100.916 178.959 90.44C178.959 79.8347 181.028 70.7813 185.167 63.28C189.435 55.7786 195.319 50.0233 202.821 46.014C210.322 42.0047 218.923 40 228.623 40ZM228.623 59.788C223.708 59.788 219.505 60.952 216.013 63.28C212.65 65.4786 210.063 68.8413 208.253 73.368C206.442 77.8947 205.537 83.5853 205.537 90.44C205.537 97.2947 206.442 102.985 208.253 107.512C210.063 112.038 212.65 115.466 216.013 117.794C219.505 119.992 223.708 121.092 228.623 121.092C233.408 121.092 237.482 119.992 240.845 117.794C244.337 115.466 246.988 112.038 248.799 107.512C250.609 102.985 251.515 97.2947 251.515 90.44C251.515 83.5853 250.609 77.8947 248.799 73.368C246.988 68.8413 244.337 65.4786 240.845 63.28C237.482 60.952 233.408 59.788 228.623 59.788Z" fill="white"/>
<path d="M363.021 41.94H390.569L353.709 138.94H323.057L286.197 41.94H314.521L338.577 118.57L363.021 41.94Z" fill="white"/>
<path d="M431.871 41.94V138.94H405.293V54.065L407.032 49.4402L410.302 46.014L414.032 43.4402L418.582 41.94H431.871Z" fill="white"/>
<path d="M505.053 140.88C494.836 140.88 485.912 138.875 478.281 134.866C470.78 130.856 464.96 125.101 460.821 117.6C456.682 110.098 454.613 101.045 454.613 90.44C454.613 79.8347 456.682 70.7813 460.821 63.28C464.96 55.7786 470.715 50.0233 478.087 46.014C485.588 42.0047 494.124 40 503.695 40C513.524 40 521.866 42.0047 528.721 46.014C535.576 49.894 540.814 55.2613 544.435 62.116C548.056 68.8413 549.867 76.5366 549.867 85.202C549.867 87.7886 549.802 90.246 549.673 92.574C549.544 94.902 549.35 96.9713 549.091 98.782L480.485 98.4402L480.35 97.2912L480.242 96.156L480.159 95.0473L480.097 93.9402L480.032 91.9402L480.027 90.6902L480.039 89.4402L480.068 88.2961L480.116 87.1508L480.181 86.0535L480.266 84.9402L480.379 83.7609L480.518 82.5887L480.674 81.4762L480.86 80.352H537.451H524.423L524.523 81.5075L524.594 82.6817L524.634 83.8349L524.647 85.008C524.647 76.86 522.772 70.5873 519.021 66.19C515.4 61.7927 510.226 59.594 503.501 59.594C498.586 59.594 494.318 60.758 490.697 63.086C487.205 65.414 484.554 68.906 482.743 73.562C480.932 78.0887 480.027 83.844 480.027 90.828C480.027 97.6827 480.997 103.373 482.937 107.9C485.006 112.297 487.852 115.595 491.473 117.794C495.224 119.992 499.686 121.092 504.859 121.092C510.55 121.092 515.141 119.992 518.633 117.794C522.125 115.595 524.841 112.556 526.781 108.676L547.927 116.824C545.858 121.868 542.689 126.2 538.421 129.822C534.282 133.443 529.303 136.224 523.483 138.164C517.792 139.974 511.649 140.88 505.053 140.88Z" fill="white"/>
<path d="M619.079 141.32C609.25 141.32 600.261 139.574 592.113 136.082C584.095 132.59 577.563 127.675 572.519 121.338L575.122 117.88L578.622 115.38L581.122 113.88L583.456 112.93L585.622 112.38L589.122 112.026C591.292 112.026 595.088 114.289 600.261 117.264C605.435 120.239 611.578 121.726 618.691 121.726C623.735 121.726 627.745 121.015 630.72 119.592C633.823 118.04 635.376 115.647 635.376 112.414C635.376 110.345 634.664 108.599 633.241 107.176C631.819 105.624 628.974 104.395 624.706 103.49L607.634 99.9982C596.381 97.6702 588.363 94.1782 583.577 89.5222C578.921 84.7369 576.594 78.5936 576.594 71.0922C576.594 65.7896 578.145 60.8102 581.249 56.1542C584.483 51.4982 589.268 47.7475 595.605 44.9022C601.943 41.9275 609.832 40.4402 619.274 40.4402C628.974 40.4402 637.38 41.9922 644.493 45.0962C651.736 48.0709 651.622 53.0342 651.622 60.0342L650.622 64.4962L649.122 67.8804L647.622 71.0922L646.622 72.3804C643.777 67.8538 639.061 66.0482 634.405 63.7202C629.879 61.2629 625.094 60.0342 620.05 60.0342C616.428 60.0342 613.324 60.4222 610.738 61.1982C608.151 61.9742 606.211 63.0735 604.917 64.4962C603.624 65.7895 602.977 67.4709 602.977 69.5402C602.977 71.6095 603.883 73.4202 605.693 74.9722C607.504 76.3949 610.802 77.6235 615.587 78.6582L635.376 82.7322C644.946 84.6722 651.801 87.9702 655.939 92.6262C660.078 97.1529 662.147 102.649 662.147 109.116C662.147 115.324 660.466 120.885 657.103 125.8C653.87 130.585 649.02 134.401 642.553 137.246C636.216 139.962 628.391 141.32 619.079 141.32Z" fill="url(#paint0_linear_17_20)"/>
</g>
<defs>
<linearGradient id="paint0_linear_17_20" x1="564.532" y1="57.4402" x2="665.532" y2="106.94" gradientUnits="userSpaceOnUse">
<stop stop-color="#0074FD"/>
<stop offset="0.485" stop-color="#0C99AF"/>
<stop offset="1" stop-color="#19C15D"/>
</linearGradient>
<clipPath id="clip0_17_20">
<rect width="380.707" height="141.426" fill="white" transform="translate(689)"/>
</clipPath>
<clipPath id="clip1_17_20">
<rect width="662.147" height="101.32" fill="white" transform="translate(0 40)"/>
</clipPath>
</defs>
</svg>
